<svg width="620" height="258" viewBox="0 0 620 258" fill="none" xmlns="http://www.w3.org/2000/svg">
<path d="M619.5 111.121C619.5 105.838 615.244 101.56 610 101.56C604.756 101.56 600.5 105.838 600.5 111.121C600.5 116.403 604.756 120.681 610 120.681C615.244 120.681 619.5 116.403 619.5 111.121Z" fill="#FBBB20" stroke="#FBBB20"/>
<path d="M109.5 111.121C109.5 105.838 105.244 101.56 100 101.56C94.7561 101.56 90.5 105.838 90.5 111.121C90.5 116.403 94.7561 120.681 100 120.681C105.244 120.681 109.5 116.403 109.5 111.121Z" fill="#FBBB20" stroke="#FBBB20"/>
<path d="M33.5001 247.94C33.5001 242.657 29.2439 238.38 24.0001 238.38C18.7562 238.38 14.5001 242.657 14.5001 247.94C14.5001 253.223 18.7562 257.5 24.0001 257.5C29.2439 257.5 33.5001 253.223 33.5001 247.94Z" fill="#FBBB20" stroke="#FBBB20"/>
<path d="M25.5065 246.934L100.848 108.343L613.03 111.905" stroke="#FBBB20" stroke-width="4"/>
</svg>
