<svg width="82" height="65" viewBox="0 0 82 65" fill="none" xmlns="http://www.w3.org/2000/svg">
<path d="M64.8405 40.2652C63.1593 38.8796 61.1314 38.1388 58.9823 38.1388C56.8505 38.1388 54.8053 38.8659 53.0548 40.2514L47.5779 44.5728C47.1273 44.3808 46.6767 44.2024 46.2434 44.0241C45.6194 43.7771 45.0302 43.5439 44.5275 43.297C39.3973 40.7179 34.735 37.3568 30.2634 33.008C28.0969 30.8404 26.6411 29.0158 25.5838 27.1638C27.005 26.1349 28.3222 25.0648 29.6048 24.0359C30.0901 23.6518 30.5754 23.254 31.0607 22.8699C34.7004 19.9889 34.7004 16.2574 31.0607 13.3765L26.3291 9.63131C25.7918 9.20603 25.2372 8.76703 24.7172 8.32803C23.6773 7.47747 22.5854 6.59948 21.4588 5.77635C19.7776 4.45936 17.7671 3.7597 15.6527 3.7597C13.5382 3.7597 11.493 4.45936 9.75982 5.77635C9.74249 5.79007 9.74249 5.79007 9.72516 5.80379L3.83233 10.5093C1.61385 12.2653 0.348628 14.4054 0.071318 16.8885C-0.344647 20.8944 1.14589 24.6258 2.2898 27.0678C5.09756 33.0628 9.29187 38.6189 15.5487 44.5728C23.14 51.7477 32.2739 57.4135 42.7077 61.4057C46.694 62.901 52.0149 64.6707 57.9597 64.9725C58.3237 64.9863 58.705 65 59.0516 65C63.0553 65 66.4177 63.8613 69.0521 61.5977C69.0694 61.5703 69.1041 61.5566 69.1214 61.5291C70.0227 60.6649 71.0626 59.8829 72.1545 59.0461C72.8998 58.4836 73.6624 57.8937 74.4076 57.2763C76.1235 55.8633 77.0248 54.2171 77.0248 52.5297C77.0248 50.8286 76.1062 49.196 74.3556 47.8242L64.8405 40.2652ZM71.0453 54.711C71.0279 54.711 71.0279 54.7247 71.0453 54.711C70.3693 55.2871 69.676 55.8084 68.9308 56.3846C67.8042 57.2352 66.6603 58.1269 65.5857 59.1284C63.8352 60.61 61.7727 61.3096 59.069 61.3096C58.809 61.3096 58.5317 61.3096 58.2717 61.2959C53.1241 61.0353 48.3405 59.4439 44.7528 58.0858C34.943 54.3268 26.3291 48.9903 19.171 42.2269C13.2609 36.5886 9.3092 31.3754 6.69209 25.7782C5.08022 22.3623 4.49094 19.7008 4.75092 17.1903C4.92424 15.5852 5.70417 14.2545 7.14271 13.1159L13.0529 8.43778C13.9021 7.80672 14.8034 7.46375 15.6873 7.46375C16.7792 7.46375 17.6632 7.98506 18.2178 8.42406C18.2351 8.43778 18.2524 8.4515 18.2698 8.46522C19.327 9.24718 20.3323 10.0566 21.3895 10.9209C21.9268 11.3599 22.4814 11.7989 23.036 12.2516L27.7676 15.9968C29.6048 17.451 29.6048 18.7954 27.7676 20.2496C27.265 20.6474 26.7797 21.0453 26.2771 21.4294C24.8212 22.6092 23.4347 23.7067 21.9268 24.7768C21.8921 24.8042 21.8575 24.8179 21.8401 24.8453C20.3496 26.0252 20.6269 27.1775 20.9389 27.9595C20.9562 28.0006 20.9735 28.0418 20.9909 28.083C22.2214 30.4426 23.9546 32.665 26.5891 35.3127L26.6064 35.3264C31.39 39.9908 36.4336 43.6262 41.9971 46.4111C42.7077 46.7678 43.4356 47.0559 44.1289 47.3303C44.7528 47.5772 45.3421 47.8104 45.8447 48.0574C45.9141 48.0848 45.9834 48.126 46.0527 48.1534C46.642 48.3866 47.1966 48.4964 47.7686 48.4964C49.2071 48.4964 50.1084 47.783 50.403 47.5498L56.3305 42.858C56.9198 42.3916 57.8557 41.8291 58.9476 41.8291C60.0222 41.8291 60.9061 42.3641 61.4434 42.8306C61.4607 42.8443 61.4608 42.8443 61.4781 42.858L71.0279 50.417C72.8131 51.8163 72.8131 53.2568 71.0453 54.711Z" fill="#401D59"/>
<path d="M44.3195 15.4618C48.8605 16.0654 52.9855 17.7666 56.2785 20.3731C59.5716 22.9797 61.7034 26.2447 62.4833 29.839C62.674 30.7444 63.6619 31.3755 64.7885 31.3755C64.9271 31.3755 65.0484 31.3618 65.1871 31.3481C66.4697 31.1834 67.3189 30.2231 67.1109 29.2079C66.175 24.8591 63.5752 20.8944 59.6062 17.7528C55.6372 14.6113 50.6283 12.5534 45.1341 11.8126C43.8516 11.648 42.6557 12.3202 42.4304 13.3217C42.2051 14.3232 43.037 15.2972 44.3195 15.4618Z" fill="#401D59"/>
<path d="M81.9643 28.6729C80.4218 21.5117 76.1582 14.9953 69.6067 9.80967C63.0553 4.624 54.8226 1.2492 45.7754 0.0282351C44.5102 -0.150108 43.3143 0.535827 43.089 1.53729C42.881 2.55248 43.7303 3.49907 45.0128 3.67741C53.0895 4.76119 60.4555 7.79302 66.3137 12.4162C72.1718 17.0531 75.9848 22.8836 77.3541 29.2765C77.5447 30.1819 78.5326 30.813 79.6592 30.813C79.7979 30.813 79.9192 30.7993 80.0578 30.7856C81.3231 30.6347 82.1897 29.6743 81.9643 28.6729Z" fill="#401D59"/>
</svg>
