<svg width="100" height="100" viewBox="0 0 100 100" fill="none" xmlns="http://www.w3.org/2000/svg">
<path d="M40.5887 1.46265C27.7442 4.79599 18.0109 14.2627 14.0997 27.2405C13.0775 30.7072 12.8997 32.0405 12.8997 37.0183C12.8553 42.3072 12.9886 43.1516 14.322 47.2405C18.8998 61.4628 29.7442 77.7739 47.6554 97.2406L49.922 99.6851L51.922 97.4628C73.2999 73.9961 84.8554 55.3294 86.8555 41.0183C87.8332 33.996 85.9221 25.2849 81.8777 18.396C80.7221 16.4405 78.3665 13.6405 75.7443 11.0182C72.2776 7.55155 70.7221 6.35155 67.3443 4.61822C58.9443 0.307098 49.4776 -0.804016 40.5887 1.46265ZM57.6109 13.6849C62.6776 15.2405 68.011 19.3738 71.0332 24.0849C75.9221 31.7738 76.0554 43.2405 71.2554 50.485C67.0776 56.7961 62.1887 60.2628 55.0332 61.9517C43.2109 64.7072 30.0553 57.1516 26.0553 45.2405C24.8998 41.7738 24.8998 33.1072 26.0998 29.6849C29.122 20.7516 37.1665 14.0849 46.5887 12.6182C49.0331 12.2627 54.7665 12.796 57.6109 13.6849Z" fill="#FDB926"/>
</svg>
